<svg xmlns="http://www.w3.org/2000/svg" width="100" height="105" viewBox="0 0 100 105">
    <g fill="none" fill-rule="nonzero">
        <path fill="#494970" d="M52.725 4.748C25.264 3.243 1.783 24.285.278 51.745c-.875 15.964 5.87 30.58 17.066 40.319l16.28 9.445a49.816 49.816 0 0 0 13.651 2.683c27.461 1.505 50.942-19.536 52.447-46.997 1.505-27.46-19.536-50.942-46.997-52.447z"/>
        <path fill="#6393E4" d="M16.315 91.146a49.646 49.646 0 0 0 18.61 10.797L91.4 51.7l-59.82-34.537-15.264 73.982z"/>
        <path fill="#566CC3" d="M50.882 28.309L31.579 17.164 16.315 91.146a49.923 49.923 0 0 0 6.797 5.242l27.77-68.08z"/>
        <path fill="#F5585C" d="M72.88 14.954a1.524 1.524 0 0 1-.558-2.082l5.2-9.007a1.524 1.524 0 1 1 2.64 1.525l-5.2 9.007a1.524 1.524 0 0 1-2.082.557z"/>
        <path fill="#FAB941" d="M56.935 9.046l-1.017-7.102a1.524 1.524 0 1 1 3.018-.432l1.017 7.101a1.524 1.524 0 0 1-3.018.433z"/>
        <path fill="#6393E4" d="M46.235 11.36l-1.103-1.288A1.525 1.525 0 0 1 47.45 8.09l1.102 1.287a1.525 1.525 0 0 1-2.316 1.983z"/>
        <path fill="#FAB941" d="M83.77 24.835a1.524 1.524 0 0 1 .847-1.982l6.659-2.67a1.524 1.524 0 0 1 1.134 2.83l-6.659 2.67a1.524 1.524 0 0 1-1.982-.848z"/>
        <path fill="#F5585C" d="M90.764 36.417l-1.666-.31a1.525 1.525 0 0 1 .559-2.997l1.666.31a1.525 1.525 0 0 1-.56 2.997z"/>
        <path fill="#FAD964" d="M64.759 4.15a1.524 1.524 0 0 1 .847-1.981L69.002.807a1.524 1.524 0 0 1 1.135 2.83L66.74 4.998a1.524 1.524 0 0 1-1.982-.847zM79.98 17.252a1.524 1.524 0 0 1 .847-1.982l.849-.34a1.525 1.525 0 0 1 1.134 2.83l-.849.34a1.524 1.524 0 0 1-1.982-.848zM53.404 17.627l-.13-.905a1.524 1.524 0 1 1 3.017-.433l.13.906a1.524 1.524 0 1 1-3.017.432z"/>
        <path fill="#37C47A" d="M70.97 26.465c.142-.83.928-1.389 1.759-1.248.302.051.6-.132.69-.426a3.666 3.666 0 0 1 4.367-2.488 1.525 1.525 0 0 1-.72 2.963.616.616 0 0 0-.732.417c-1.01 3.3-5.795 3.326-5.363.782z"/>
        <path fill="#6393E4" d="M85.33 12.118c.142-.83.927-1.388 1.759-1.248.303.053.6-.131.69-.425a3.667 3.667 0 0 1 4.367-2.488 1.525 1.525 0 0 1-.72 2.962.616.616 0 0 0-.732.418c-1.01 3.302-5.794 3.324-5.363.781z"/>
        <path fill="#FAB941" d="M61.72 22.161a3.672 3.672 0 0 1 .142-4.833.615.615 0 0 0-.005-.843 1.525 1.525 0 0 1 2.206-2.105 3.666 3.666 0 0 1 .03 5.027.616.616 0 0 0-.024.81 1.524 1.524 0 1 1-2.349 1.944z"/>
        <path fill="#FAD964" d="M64.13 35.957c-4.934-.247-5.105-4.052-10.37-4.052-5.44 0-5.44 4.065-10.88 4.065-5.442 0-5.442-4.065-10.883-4.065-1.581 0-2.702.345-3.63.832l-2.592 12.56c4.045.646 4.526 3.955 9.436 3.955 5.44 0 5.44-4.065 10.881-4.065s5.441 4.065 10.882 4.065 5.441-4.065 10.883-4.065c5.44 0 5.44 4.065 10.881 4.065 2.563 0 3.92-.902 5.205-1.856L64.13 35.957z"/>
        <path fill="#FAB941" d="M42.88 35.97c-5.442 0-5.442-4.065-10.883-4.065-1.582 0-2.702.344-3.631.832l-2.592 12.56c4.046.645 4.526 3.955 9.437 3.955 4.585 0 5.306-2.887 8.676-3.795L48.7 33.655c-1.5 1.101-2.848 2.315-5.822 2.315z"/>
        <path fill="#F5585C" d="M81.953 58.47c-5.442 0-5.442 4.064-10.883 4.064-5.441 0-5.441-4.065-10.882-4.065s-5.441 4.065-10.883 4.065c-5.44 0-5.44-4.065-10.881-4.065s-5.441 4.065-10.882 4.065c-2.412 0-3.754-.799-4.976-1.688l-3.087 14.96c.13.006.26.01.395.01 5.44 0 5.44-4.065 10.881-4.065s5.441 4.065 10.882 4.065 5.441-4.065 10.882-4.065 5.441 4.065 10.882 4.065c.334 0 .646-.015.941-.044l19.28-17.153a8.874 8.874 0 0 0-1.669-.15z"/>
        <path fill="#E34450" d="M38.424 58.47c-5.441 0-5.441 4.064-10.882 4.064-2.412 0-3.754-.799-4.976-1.688l-3.087 14.96c.13.006.26.01.395.01 5.44 0 5.44-4.065 10.881-4.065.893 0 1.638.111 2.286.294l5.536-13.572c-.051-.001-.1-.004-.153-.004z"/>
        <path fill="#FAD964" d="M44.851 85.033c-5.441 0-5.441 4.065-10.882 4.065s-5.441-4.065-10.882-4.065c-3.103 0-4.436 1.322-6.018 2.458l-.754 3.655c4.35 4 9.424 7.242 15.02 9.503 1.51-1.106 2.857-2.334 5.848-2.334.617 0 1.161.055 1.654.147l12.2-10.853c-1.659-1.16-2.975-2.576-6.186-2.576z"/>
        <path fill="#FAB941" d="M23.087 85.033c-3.103 0-4.436 1.322-6.018 2.458l-.754 3.655a49.97 49.97 0 0 0 6.797 5.242l4.162-10.204c-1.04-.65-2.278-1.15-4.187-1.15z"/>
        <path fill="#E2E9F2" d="M90.687 52.487L30.867 17.95a2.744 2.744 0 1 1 2.744-4.753l59.82 34.537a2.744 2.744 0 1 1-2.744 4.753z"/>
        <path fill="#C7D6E5" d="M50.202 25.848a3.011 3.011 0 0 1 2.716-1.504L33.611 13.197a2.744 2.744 0 1 0-2.744 4.753l19.636 11.336a3.011 3.011 0 0 1-.301-3.438z"/>
    </g>
</svg>
