<svg xmlns="http://www.w3.org/2000/svg" xmlns:xlink="http://www.w3.org/1999/xlink" width="14" height="14" viewBox="0 0 14 14">
    <defs>
        <path id="a" d="M9.002 10.065a.38.38 0 0 1-.02.403l-1.64 2.357A.415.415 0 0 1 7 13a.415.415 0 0 1-.341-.175l-1.64-2.357a.38.38 0 0 1-.021-.403.413.413 0 0 1 .361-.208h.41V7.893c0-.217.184-.393.41-.393H7.82c.227 0 .41.176.41.393v1.964h.41c.152 0 .291.08.362.208zm2.905-4.675C13.151 5.865 14 6.99 14 8.286c0 1.733-1.5 3.143-3.309 3.143H9.3l.366-.526c.251-.362.275-.825.06-1.209a1.214 1.214 0 0 0-.674-.555V7.893c0-.65-.552-1.179-1.23-1.179H6.18c-.679 0-1.23.529-1.23 1.179v1.246a1.214 1.214 0 0 0-.676.555c-.214.384-.19.847.062 1.21l.365.525H3.309C1.499 11.429 0 10.019 0 8.286 0 6.849 1.072 5.597 2.507 5.25 2.672 3.416 4.257 2 6.18 2c1.28 0 2.439.637 3.113 1.675.7-.188 1.498-.036 2.028.472.35.336.55.774.586 1.243z"/>
    </defs>
    <g fill="none" fill-rule="evenodd">
        <mask id="b" fill="#fff">
            <use xlink:href="#a"/>
        </mask>
        <use fill="#000" fill-rule="nonzero" xlink:href="#a"/>
        <g fill="#3487CB" mask="url(#b)">
            <rect width="14" height="14" rx="4"/>
        </g>
    </g>
</svg>
