<svg xmlns="http://www.w3.org/2000/svg" xmlns:xlink="http://www.w3.org/1999/xlink" width="14" height="14" viewBox="0 0 14 14">
    <defs>
        <path id="a" d="M13.11 4.438H.64c-.634 0-.665.308-.63.684l.567 6.193c.034.377.123.685.755.685h11.086c.644 0 .72-.308.755-.685l.568-6.193c.034-.376.003-.684-.63-.684zm-.457-1.513c-.076-.302-.45-.55-.831-.55H7.137c-.381 0-.914-.218-1.184-.485l-.41-.405C5.274 1.218 4.742 1 4.36 1H2.122a.792.792 0 0 0-.77.683l-.2 1.792h11.64l-.139-.55z"/>
    </defs>
    <g fill="none" fill-rule="evenodd">
        <mask id="b" fill="#fff">
            <use xlink:href="#a"/>
        </mask>
        <use fill="#030104" fill-rule="nonzero" xlink:href="#a"/>
        <g fill="#3487CB" mask="url(#b)">
            <rect width="14" height="14" rx="4"/>
        </g>
    </g>
</svg>
