<svg xmlns="http://www.w3.org/2000/svg" xmlns:xlink="http://www.w3.org/1999/xlink" width="12" height="12" viewBox="0 0 12 12">
    <defs>
        <path id="path-history" d="M6.297 2.867h.865v2.415L9.165 6.49l-.425.686-2.443-1.468v-2.84zM6.86 0c.933 0 1.797.233 2.593.7a5.137 5.137 0 0 1 1.852 1.852c.467.796.7 1.66.7 2.593s-.233 1.797-.7 2.593A5.137 5.137 0 0 1 9.453 9.59c-.796.467-1.66.7-2.593.7a5.083 5.083 0 0 1-3.622-1.495l.81-.837a3.916 3.916 0 0 0 2.813 1.18c.73 0 1.403-.179 2.016-.536a3.994 3.994 0 0 0 1.454-1.44 3.862 3.862 0 0 0 .549-2.017c0-.732-.183-1.404-.549-2.017a3.994 3.994 0 0 0-1.454-1.44 3.937 3.937 0 0 0-2.017-.536c-.732 0-1.404.179-2.017.536a4.027 4.027 0 0 0-1.44 1.44 3.937 3.937 0 0 0-.536 2.017h1.715L2.278 7.45l-.055-.082L0 5.145h1.715c0-.933.233-1.797.7-2.593A5.137 5.137 0 0 1 4.267.7C5.063.233 5.927 0 6.86 0z"/>
    </defs>
    <g fill="none" fill-rule="evenodd" transform="translate(0 1)">
        <mask id="mask-history" fill="#fff">
            <use xlink:href="#path-history"/>
        </mask>
        <use fill="#3487CB" xlink:href="#path-history"/>
        <g fill="#4A4A4A" mask="url(#mask-history)">
            <rect width="28" height="22" rx="4" transform="translate(-5 -1)"/>
        </g>
    </g>
</svg>
