<svg xmlns="http://www.w3.org/2000/svg" xmlns:xlink="http://www.w3.org/1999/xlink" width="12" height="12" viewBox="0 0 12 12">
    <defs>
        <path id="a" d="M6.474 9.268V1.634H1.572v7.634h4.902zm-2.445 2.17a.782.782 0 0 0 .576-.235.782.782 0 0 0 .235-.576.804.804 0 0 0-.235-.581.772.772 0 0 0-.576-.242.804.804 0 0 0-.581.235.787.787 0 0 0-.242.588c0 .236.078.43.235.582a.81.81 0 0 0 .588.229zM6.225 0c.236 0 .458.063.667.19.21.126.375.294.497.503.122.209.183.436.183.68v9.254c0 .244-.061.471-.183.68a1.41 1.41 0 0 1-.497.503c-.209.127-.431.19-.667.19H1.86a1.29 1.29 0 0 1-.68-.19 1.41 1.41 0 0 1-.496-.503 1.326 1.326 0 0 1-.183-.68V1.373c0-.244.061-.471.183-.68A1.41 1.41 0 0 1 1.18.19c.209-.127.435-.19.68-.19h4.365z"/>
    </defs>
    <g fill="none" fill-rule="evenodd" transform="translate(2)">
        <mask id="b" fill="#fff">
            <use xlink:href="#a"/>
        </mask>
        <use fill="#4A4A4A" xlink:href="#a"/>
        <g fill="#4A4A4A" mask="url(#b)">
            <rect width="12" height="12" rx="4" transform="translate(-2)"/>
        </g>
    </g>
</svg>
