<svg xmlns="http://www.w3.org/2000/svg" xmlns:xlink="http://www.w3.org/1999/xlink" width="14" height="14" viewBox="0 0 14 14">
    <g fill="none" fill-rule="evenodd">
        <mask fill="#fff">
            <path d="M11.207.583v2.794H2.793V.583h8.414zm.69 6.31a.713.713 0 0 0 .513-.201.652.652 0 0 0 .21-.488c0-.191-.07-.36-.21-.505a.685.685 0 0 0-.513-.219.644.644 0 0 0-.497.21.73.73 0 0 0-.193.514.68.68 0 0 0 .69.69zM9.793 11.79V8.307H4.207v3.483h5.586zm2.104-7.69a2.134 2.134 0 0 1 1.817 1.06c.19.326.286.673.286 1.044v4.206h-2.793v2.794H2.793V10.41H0V6.204a2.134 2.134 0 0 1 1.06-1.817A2.03 2.03 0 0 1 2.103 4.1h9.794z"/>
        </mask>
        <use fill="#4A4A4A">
            <mask fill="#fff">
            <path d="M11.207.583v2.794H2.793V.583h8.414zm.69 6.31a.713.713 0 0 0 .513-.201.652.652 0 0 0 .21-.488c0-.191-.07-.36-.21-.505a.685.685 0 0 0-.513-.219.644.644 0 0 0-.497.21.73.73 0 0 0-.193.514.68.68 0 0 0 .69.69zM9.793 11.79V8.307H4.207v3.483h5.586zm2.104-7.69a2.134 2.134 0 0 1 1.817 1.06c.19.326.286.673.286 1.044v4.206h-2.793v2.794H2.793V10.41H0V6.204a2.134 2.134 0 0 1 1.06-1.817A2.03 2.03 0 0 1 2.103 4.1h9.794z"/>
        </mask>
        </use>
        <g fill="#BDBDBD">
        <mask fill="#fff">
            <path d="M11.207.583v2.794H2.793V.583h8.414zm.69 6.31a.713.713 0 0 0 .513-.201.652.652 0 0 0 .21-.488c0-.191-.07-.36-.21-.505a.685.685 0 0 0-.513-.219.644.644 0 0 0-.497.21.73.73 0 0 0-.193.514.68.68 0 0 0 .69.69zM9.793 11.79V8.307H4.207v3.483h5.586zm2.104-7.69a2.134 2.134 0 0 1 1.817 1.06c.19.326.286.673.286 1.044v4.206h-2.793v2.794H2.793V10.41H0V6.204a2.134 2.134 0 0 1 1.06-1.817A2.03 2.03 0 0 1 2.103 4.1h9.794z"/>
        </mask>
            <rect width="18" height="18" rx="4" transform="translate(-1.167)"/>
        </g>
    </g>
</svg>
